<?xml version="1.0" encoding="UTF-8"?>
<svg id="Camada_1" data-name="Camada 1" xmlns="http://www.w3.org/2000/svg" xmlns:xlink="http://www.w3.org/1999/xlink" viewBox="0 0 356.95 261.61">
  <defs>
    <style>
      .cls-1 {
        fill: url(#Gradiente_sem_nome_4);
        stroke-width: 0px;
      }
    </style>
    <linearGradient id="Gradiente_sem_nome_4" data-name="Gradiente sem nome 4" x1="43.5" y1="-15.63" x2="292.96" y2="204.61" gradientUnits="userSpaceOnUse">
      <stop offset=".24" stop-color="#f5ede1"/>
      <stop offset=".6" stop-color="#d1b8a1"/>
    </linearGradient>
  </defs>
  <path class="cls-1" d="M224.64,207.82c3-10.79,5.69-20.43,8.75-31.43-5.43,0-9.6,0-13.76,0-56.26,0-112.51.01-168.77.02-16.58,0-18.13-.98-21.84-14.86C19.78,127.03,10.58,92.5,1.42,57.96c-3.84-14.46-.38-18.32,16.6-18.32,79.04-.02,158.08,0,237.13.01,5.29,0,10.58,0,16.8,0,2.76-9.58,5.33-18.63,7.98-27.66,3.01-10.26,5.14-11.84,16.83-11.93,14.6-.11,29.2-.05,43.79-.05,1.42,0,2.85-.01,4.27.1,7.65.6,11.99,4.02,12.13,9.53.15,5.68-4.73,9.61-12.87,9.86-7.47.23-14.95.05-22.43.06-6.73,0-13.47,0-21,0-1.15,3.25-2.36,6.11-3.19,9.05-17.28,61.23-34.51,122.47-51.76,183.71-.09.3-.17.61-.25.91-3.41,12.04-4.49,12.87-19.34,14.17,5.34,6.22,10.01,12.69,6.97,20.42-1.44,3.67-4.13,7.44-7.42,9.98-7.27,5.61-19.19,4.78-26.48-1.04-8.96-7.17-8.96-15.99.52-29.31h-109.26c4.58,6.24,9.86,12.33,6.8,19.9-1.48,3.68-4,7.48-7.25,10.05-7.42,5.87-18.78,5.39-26.47-.3-9.2-6.81-9.35-14.97.04-30.35-5.75,0-10.98.21-16.17-.05-7.04-.36-10.76-3.79-10.73-9.37.03-5.67,3.67-8.99,10.63-9.46,2.83-.19,5.69-.06,8.54-.06,51.98,0,103.97,0,155.95,0,3.88,0,7.75,0,12.86,0ZM221.39,59.18c-1.85,13.23-3.56,25.52-5.35,38.35h39.73c3.55-12.84,6.96-25.18,10.59-38.35h-44.98ZM26.01,59.09c3.7,13.65,7.05,26.02,10.41,38.44h37.66c-1.69-13.3-3.28-25.83-4.88-38.44H26.01ZM133.68,97.71v-38.51h-41.93c1.73,13.21,3.36,25.7,5.03,38.51h36.9ZM198.78,59.46h-41.38v37.98h36.08c1.8-12.91,3.52-25.18,5.31-37.98ZM213.1,118.2c-1.8,12.88-3.54,25.34-5.34,38.21h31.39c3.57-12.79,7.02-25.12,10.68-38.21h-36.72ZM133.94,156.55v-38.06h-34.63c1.7,13.19,3.28,25.48,4.9,38.06h29.73ZM81.66,156.47c-1.77-13.5-3.37-25.77-4.99-38.16h-34.78c3.53,13.2,6.83,25.53,10.21,38.16h29.56ZM157.18,156.41h27.96c1.82-12.73,3.57-24.98,5.44-38.03h-33.4v38.03Z"/>
</svg>