<?xml version="1.0" encoding="UTF-8"?>
<svg id="Camada_1" data-name="Camada 1" xmlns="http://www.w3.org/2000/svg" viewBox="0 0 200 200">
  <defs>
    <style>
      .cls-1 {
        fill: #4a2815;
        stroke-width: 0px;
      }
    </style>
  </defs>
  <path class="cls-1" d="M29.59,103.96h88.7c-.41,4.92-.73,9.53-1.18,14.13-1.63,16.7-3.39,33.38-4.89,50.09-.36,4.01-1.99,5.4-6.1,5.37-21.3-.14-42.6-.07-63.91-.08-6,0-6.09,0-6.67-5.83-2.02-20.11-3.99-40.23-5.95-60.34-.09-.94-.01-1.9-.01-3.33Z"/>
  <path class="cls-1" d="M53.15,96.38c.91-3.89,1.74-6.82,2.22-9.8.21-1.32.15-2.99-.52-4.07-1.73-2.8-1.71-5.21-.06-8.1.73-1.28.62-3.73-.19-5-2.71-4.26.52-8.2.29-12.29-.02-.43,1.79-1.1,2.83-1.42,36.93-11.59,73.87-23.15,110.81-34.71.81-.25,1.68-.76,2.42-.62,1.1.2,2.11.87,3.16,1.34-.55.99-.85,2.39-1.71,2.88-1.55.89-3.42,1.25-5.16,1.8-29.14,9.12-58.29,18.24-87.43,27.37-.74.23-1.43.6-1.95,1.55,10.17-2.15,20.33-4.3,30.5-6.46,21.23-4.5,42.46-9.01,63.69-13.5.69-.15,1.46-.45,2.08-.28,1.19.34,2.28.97,3.42,1.49-.87,1.03-1.57,2.73-2.63,2.98-7.81,1.87-15.69,3.44-23.54,5.11-25.36,5.4-50.72,10.8-76.08,16.21-1.19.25-2.36.61-4.4,1.14,3.9,4.08,3.96,7.87.97,11.92-.56.76.73,2.69.87,4.12.24,2.45,1.06,5.26.15,7.29-1.14,2.55-1.76,4.41.09,6.77.82,1.04,1.08,2.51,1.79,4.28,1.28,0,2.8,0,4.32,0,12.71,0,25.42.02,38.12.01,2.41,0,4.82.18,4.86,3.22.04,3.21-2.51,3.06-4.85,3.06-28.8-.02-57.61-.02-86.41-.02-2.33,0-4.9.2-4.9-3.01,0-3.03,2.38-3.26,4.82-3.26,7.89.03,15.78.01,22.44.01ZM64.88,62.72c-.34.35-.68.71-1.02,1.06,3.62,4.02,4.01,7.98.62,12.04-.37.44-.23,1.75.18,2.26,2.81,3.52,2.55,6.72.29,10.6-.81,1.39.91,4.39,1.91,6.44.37.74,2.04.88,3.69,1.52-.25-1.45-.16-2.1-.45-2.47-2.71-3.48-3.01-6.89-.22-10.56.58-.76.62-2.62.06-3.39-2.55-3.48-2.37-6.55-.23-10.29.78-1.35-.71-4.18-1.65-6.1-.34-.7-2.08-.76-3.19-1.11ZM62.19,96.8c.37-.28.74-.56,1.11-.84-3.14-3.83-3.31-7.49-.38-11.39.56-.74-.69-2.66-.84-4.06-.25-2.31-1.27-5.3-.21-6.84,2.18-3.16,1.31-5.41-.72-7.69-.71-.79-2.21-.91-3.34-1.34.08,1.09-.22,2.43.32,3.23,1.97,2.91,1.81,5.48-.07,8.43-.68,1.07-.6,3.25.09,4.37,1.83,2.96,1.85,5.46-.01,8.44-.73,1.17-.57,3.44.13,4.73.7,1.3,2.57,2,3.92,2.96Z"/>
</svg>