<?xml version="1.0" encoding="UTF-8"?>
<svg id="Camada_1" data-name="Camada 1" xmlns="http://www.w3.org/2000/svg" viewBox="0 0 200 200">
  <defs>
    <style>
      .cls-1 {
        fill: #4a2815;
        stroke-width: 0px;
      }
    </style>
  </defs>
  <path class="cls-1" d="M99.1,96.81c-23.32,0-46.65.02-69.97,0-5.94,0-6.12-.35-5.38-6.39,1.51-12.25,8.79-20.17,19.24-25.64,10.19-5.34,21.26-7.68,32.58-8.88,22.17-2.36,44.25-2.2,65.97,3.53,8.94,2.36,17.3,6.05,23.91,12.85,5.17,5.32,8,11.73,9.09,19.04.61,4.11-.65,5.61-4.97,5.58-21.16-.17-42.32-.09-63.48-.09-2.33,0-4.66,0-7,0Z"/>
  <path class="cls-1" d="M99.22,173.68c-22.48,0-44.97.01-67.45,0-7.1,0-8.3-1.27-8.38-8.53q-.15-13.52,13.32-13.4c.67,0,1.34.08,2,0,12.3-1.54,23.32,1.07,32.79,9.51,3.47,3.09,7.76,3.31,11.6.73,14.08-9.46,29.63-11.31,46.16-10.39,13.45.75,26.97.26,40.46.06,4.17-.06,5.74,1.42,5.38,5.5-.23,2.65-.03,5.33-.05,7.99-.04,7.22-1.27,8.52-8.37,8.53-22.48.02-44.97,0-67.45,0Z"/>
  <path class="cls-1" d="M98.25,114.38c23.65,0,47.3-.01,70.95,0,6.81,0,10.9,3.54,11.69,10.32.17,1.5-.26,3.45-1.18,4.54-.49.58-2.8.13-3.99-.46-4.67-2.3-9.01-2.36-13.84.01-1.96.96-5.34.49-7.44-.58-5.24-2.66-9.94-2.48-14.44,1.11-4.35,3.48-8.57,3.76-13.21.52-4.91-3.42-10-3.38-14.81.3-4.06,3.11-8.12,2.86-11.92-.1-7.23-5.63-14.06-5.03-21.54-.13-7.04,4.6-8.6,4.24-14.99-1.11-4.29-3.58-8.55-4.36-13.13-.99-4.23,3.11-8.18,3-12.29-.21-4.28-3.34-8.64-3.74-13.27-.33-1.23.9-3.86,1.51-4.76.83-1.13-.86-1.65-3.22-1.57-4.88.31-6.15,3.69-9.09,9.8-9.09,23.32.01,46.63,0,69.95,0,0,.07,0,.15,0,.22Z"/>
  <path class="cls-1" d="M99.23,99.6c23.14,0,46.27-.04,69.41.07,1.98,0,5.36.58,5.65,1.59.79,2.72.69,5.94,0,8.72-.23.91-3.36,1.54-5.17,1.55-22.47.11-44.94.08-67.41.08-23.97,0-47.94.03-71.9-.07-1.97,0-5.34-.58-5.64-1.6-.79-2.72-.7-5.93-.01-8.7.23-.92,3.36-1.55,5.17-1.56,23.3-.1,46.6-.07,69.91-.07Z"/>
  <path class="cls-1" d="M30.49,127.24c2.1.96,4.43,1.59,6.25,2.93,4.91,3.6,9.71,4.06,14.67.33,4.09-3.08,7.46-2.1,11.07,1.16,5.78,5.22,9.34,5.38,16.24,1.57,1.46-.81,2.9-1.64,4.31-2.53,4.41-2.78,8.82-2.91,13.02.29,6.26,4.77,12.32,5.66,19.1.63,4.83-3.58,8.95-.36,13.32,2.93-1.46.94-2.46,1.72-3.58,2.28-14.15,7.05-28.33,14.03-42.45,21.14-3.04,1.53-5.75,2.12-8.86.07-13.76-9.06-27.6-18-41.39-27-.91-.59-1.68-1.4-2.52-2.1.28-.56.55-1.13.83-1.69Z"/>
  <path class="cls-1" d="M109.41,147.67c8.47-4.14,16.95-8.27,25.41-12.42,1.79-.88,3.73-1.58,5.29-2.77,4.57-3.49,8.91-4.1,14.28-1.21,2.36,1.27,5.99.29,9.03.13.93-.05,1.88-1.23,2.71-1.11,3.16.44,6.78.47,9.22,2.12,1.3.88,1.19,4.94.61,7.3-1.5,6.16-6.44,9.45-14.14,9.51-16.33.14-32.66.05-48.98.02-1.06,0-2.12-.37-3.18-.56-.08-.34-.17-.68-.25-1.01Z"/>
  <path class="cls-1" d="M52.26,149.62c-7.18-.4-14.47-.18-21.5-1.4-5.94-1.03-10.05-8.05-8.76-13.79.32-1.41,3.86-3.61,4.58-3.19,8.87,5.29,17.49,10.99,26.17,16.59-.16.6-.33,1.19-.49,1.79Z"/>
</svg>