<?xml version="1.0" encoding="UTF-8"?>
<svg id="Camada_1" data-name="Camada 1" xmlns="http://www.w3.org/2000/svg" viewBox="0 0 200 200">
  <defs>
    <style>
      .cls-1 {
        fill: #4a2815;
        stroke-width: 0px;
      }
    </style>
  </defs>
  <path class="cls-1" d="M114.83,162.6c-10.48-2.82-20.32-1.59-29.87,4.24-3.76,2.29-7.6,4.58-11.6,6.11-11.75,4.48-20.71-1.54-22.9-16-.83-5.53-.35-11.74.88-17.22,1.77-7.92,6.8-11.58,13.64-11.6,2.56,0,5.14.1,7.68.43,11.5,1.48,21.11-2.53,28.94-13.13,5.35-7.23,10.9-14.43,17.11-20.53,14.91-14.65,31.65-15.55,48.85-6.81,21.29,10.81,22.61,46.35,5.98,64-8.39,8.9-18.55,12.15-29.33,13.35-2.54.28-22.3-.92-29.39-2.83ZM178.4,128.41c-7.5,24.79-23.56,29.71-41.87,29.89,22.09,3.25,38.8-8.26,41.87-29.89Z"/>
  <path class="cls-1" d="M72.08,126.64c-1.28-.12-2.55-.24-3.83-.35-11.95-1-18.98,6.22-20.19,20.48-.27,3.18-.26,7.19-1.82,9.27-3.61,4.84-8.36,8.18-14.03,8.62-8.41.66-15.22-7.06-16.77-18.86-1.67-12.72,2.66-20.05,13.19-22.34,1.26-.27,2.52-.6,3.78-.8,8.62-1.42,14.77-6.8,19.06-15.97,3.75-8.02,7.57-16.18,12.38-23.27,9.98-14.71,30.17-19.67,43.86-11.78,5.75,3.31,9.58,8.71,11.81,15.69.42,1.32-.13,3.82-1,4.9-5.25,6.52-11.18,12.31-16.01,19.23-8.09,11.6-17.83,17.24-30.44,15.19Z"/>
</svg>