<?xml version="1.0" encoding="UTF-8"?>
<svg id="Camada_1" data-name="Camada 1" xmlns="http://www.w3.org/2000/svg" viewBox="0 0 200 200">
  <defs>
    <style>
      .cls-1 {
        fill: #4a2815;
        stroke-width: 0px;
      }
    </style>
  </defs>
  <path class="cls-1" d="M122.84,148.95c-20.28-7.04-36.54-.75-50.57,15.08-2.61-7.53-5.82-13.59-12.93-15.24-3.69-.86-8.05-.82-11.65.3-8.79,2.72-11.79,10.16-10.33,24.16-3.65,1.06-7.36,2.46-11.21,3.16-4.61.85-7.18-3.21-4.91-7.93,3.97-8.25,8.47-16.25,12.34-24.54,2.42-5.19,5.66-8.86,11.02-11.4,9.62-4.57,15.05-12.35,16.72-23.25,1.06-6.92,4.25-13.49,6.13-20.31,1.39-5.03,2.23-10.22,3.31-15.33.27-1.27.24-2.69.8-3.81,3.7-7.46,7.35-14.95,11.44-22.19.76-1.35,3.55-2.55,5.13-2.26,11.22,2,21.27,6.84,27.3,16.72,8.1,13.27,18.52,23.34,32.94,29.36,6.1,2.55,10.28,7.48,12.7,13.52,3.77,9.39,7.08,18.95,10.85,29.15-4.7,1.37-9.37,2.74-14.03,4.09-3.85-11-11.01-17.47-22.36-14.84-10.14,2.36-13.5,9.17-12.69,25.56ZM90.96,99.42c-9.75-.05-17.55,7.51-17.7,17.15-.15,9.74,7.9,17.84,17.66,17.77,9.67-.06,17.35-7.78,17.4-17.49.05-9.66-7.64-17.38-17.37-17.43ZM114.17,77.91c.02-8.48-6.66-15.26-15.1-15.32-8.53-.06-15.16,6.54-15.23,15.14-.06,8.46,6.65,15.33,15.07,15.43,8.23.09,15.24-6.91,15.25-15.25Z"/>
  <path class="cls-1" d="M174.86,133.2c-1.8-4.12-3.69-8.12-5.31-12.23-1.34-3.4-2.46-6.9-3.52-10.4-3.33-10.99-9.9-18.9-20.75-23.38-10.63-4.39-18.91-11.85-24.58-21.85-7.07-12.47-17.97-19.23-31.55-22.39-.95-.22-1.88-.51-2.81-.77,1.94-7.54,4.65-9.01,11.41-6.13,39.94,17.01,66.94,46.08,81.01,87.15,1.36,3.98,2.32,7.85-3.9,10Z"/>
  <path class="cls-1" d="M68.79,78.57c-.97,2.82-1.54,5.88-2.99,8.43-4.01,7.08-6.21,14.53-7.01,22.65-1.03,10.45-7.63,18.06-18.72,21.88,9.36-18.4,18.29-35.96,27.22-53.52.5.19,1,.38,1.5.56Z"/>
  <path class="cls-1" d="M79.79,160.95c6.24-9.62,24.01-14.99,35.28-10.3-11.5,3.36-23,6.72-35.28,10.3Z"/>
</svg>