<?xml version="1.0" encoding="UTF-8"?>
<svg id="Camada_1" data-name="Camada 1" xmlns="http://www.w3.org/2000/svg" viewBox="0 0 200 200">
  <defs>
    <style>
      .cls-1 {
        fill: #4a2815;
        stroke-width: 0px;
      }
    </style>
  </defs>
  <path class="cls-1" d="M168.93,103.61c-.02,10.64-2.48,20.71-6.89,30.41-2.46,5.41-6.44,7.29-11.96,6.91-2.16-.15-4.31-.43-6.46-.61-6.02-.51-10.53,1.64-13.83,6.94-4.52,7.28-8.61,8.65-16.89,6.02-4.75-1.51-9.31-3.57-14.05-5.13-5.28-1.73-10.04-.65-14.52,2.79-7.29,5.59-12.7,4.12-16.45-4.4-1.88-4.25-4.74-6.3-9.36-5.63-4.82.7-8.19-1.18-11.07-5.09-1.45-1.97-4.23-4.32-6.27-4.2-4.19.26-5.06-2.02-6-4.95-8.54-26.57-3.92-50.63,15.41-70.78,19.53-20.36,43.89-26.32,70.57-17.79,26.51,8.47,42.11,27.53,47.05,55.06.32,1.8.58,3.62.71,5.44.12,1.66.03,3.33.03,4.99ZM100,128.19c13.9,0,24.83-10.81,24.83-24.55,0-13.85-10.73-24.68-24.6-24.83-13.58-.15-24.93,11.03-24.98,24.6-.05,13.65,11.09,24.79,24.75,24.79Z"/>
  <path class="cls-1" d="M38.97,134.32c3.09,2.16,5.67,3.21,7.12,5.12,3.22,4.23,6.91,6.51,12.36,5.66,4.06-.63,6.33,1.34,7.88,5.19,3.38,8.43,10.93,10.69,18.02,5.19,5.91-4.59,11.79-4.42,18.27-1.88,4.62,1.81,9.3,3.68,14.13,4.71,5.92,1.26,10.98-.85,13.88-6.4,3.39-6.47,8.64-8.18,15.44-7.16,3.09.46,6.26.42,9.4.61-5.12,16.44-36.71,31.21-62.26,29.17-22.99-1.84-51.78-22.26-54.24-40.21Z"/>
</svg>