<?xml version="1.0" encoding="UTF-8"?>
<svg id="Camada_1" data-name="Camada 1" xmlns="http://www.w3.org/2000/svg" viewBox="0 0 200 200">
  <defs>
    <style>
      .cls-1 {
        fill: #4a2815;
        stroke-width: 0px;
      }
    </style>
  </defs>
  <path class="cls-1" d="M92.04,161.56c.11.52.22,1.06.33,1.61.85,4.03-.86,7.65-3.64,7.35-5.71-.62-10.94-3.29-15.38-9-.62-.8-1.47-1.37-2.27-1.66-2.6-.94-5.24-1.62-7.84-2.57-3.96-1.45-4.96-5.06-3.41-10.73,1.1-4.01,2.06-8.19,2.66-12.43,1.77-12.57,1.07-24.99-1.7-37.12-.38-1.68-1.03-3.22-1.77-4.71.31,1.97.5,4.01.94,5.91,1.52,6.56,1.62,13.37,1.59,20.16-.02,4.31-.15,8.76-.84,12.9-1,5.92-2.45,11.69-3.93,17.39-.8,3.09-3.16,4.2-5.33,3.03-5.15-2.79-9.92-6.68-14.51-11.18-5.1-4.99-8.93-11.9-13.04-18.43-1.08-1.71-1.11-6.82-.02-8.52,3.17-4.95,6.19-10.19,9.66-14.62,5.42-6.92,11.75-11.61,18.38-15.42,7.31-4.21,14.82-7.07,22.6-8.36.9-.15,1.46-.63,1.91-1.91,3.05-8.65,7.23-11.49,13.55-9.35,6.09,2.06,12.02,4.9,17.55,9.34,3.3,2.65,6.45,5.7,9.74,8.38,1.57,1.28,3.3,2.08,4.95,3.14,7.61,4.87,14.72,10.99,21.12,18.95,2.55,3.18,6.15,3.62,8.8.66,2.09-2.33,4-5.08,5.8-7.93,3.26-5.16,6.34-10.57,9.55-15.79,1.81-2.93,4.11-4.34,6.78-4.25,2.74.1,3.96,2.75,3.06,6.62-1.57,6.79-3.15,13.57-4.77,20.34-2.29,9.56-2.32,19.11-.04,28.68,1.61,6.77,3.2,13.55,4.78,20.33.94,4.05-.35,6.85-3.2,6.83-2.65-.01-4.93-1.49-6.73-4.45-3.16-5.2-6.23-10.52-9.45-15.63-1.66-2.64-3.48-5.08-5.36-7.36-2.85-3.48-6.82-2.76-9.7.71-11.5,13.84-24.57,22.41-38.96,26.49-3.9,1.11-7.86,1.73-11.87,2.59ZM84.58,126.01c0-1.32,0-2.64,0-3.96-.03-4.09-2.38-6.89-5-5.83-2.76,1.12-5.5,2.34-8.24,3.58-1.9.87-2.83,2.76-2.86,5.64-.03,2.86.84,4.76,2.72,5.8,2.64,1.45,5.28,2.89,7.94,4.3,2.86,1.52,5.42-1.22,5.44-5.79,0-1.25,0-2.49,0-3.74ZM49.6,107.62c.04-2.86-1.5-5.11-3.57-5.22-1.9-.1-3.5,2.16-3.55,5.01-.04,2.78,1.55,5.24,3.41,5.26,2.04.02,3.67-2.19,3.71-5.04Z"/>
</svg>