<?xml version="1.0" encoding="UTF-8"?>
<svg id="Camada_1" data-name="Camada 1" xmlns="http://www.w3.org/2000/svg" viewBox="0 0 200 200">
  <defs>
    <style>
      .cls-1 {
        fill: #4a2815;
        stroke-width: 0px;
      }
    </style>
  </defs>
  <path class="cls-1" d="M99.83,156.72c-23.98,0-47.96-.13-71.94.1-5.04.05-6.56-1.54-6.59-6.55-.2-38.49,28.8-72.21,67.06-77.81,1.71-.25,4.44-1.51,4.61-2.61.29-1.97-.88-4.23-1.73-6.25-.35-.82-1.5-1.27-2.21-1.97-2.45-2.4-2.09-4.54,1.03-5.76,6.46-2.53,13.06-2.45,19.51.05,3.12,1.21,3.45,3.36,1.05,5.78-.7.71-1.8,1.21-2.15,2.05-.79,1.88-1.96,4.08-1.56,5.82.29,1.26,2.76,2.6,4.43,2.88,34.33,5.79,59.45,30.25,65.74,64.44.84,4.56.86,9.27,1.25,13.9.38,4.43-1.42,6.07-6.06,6.03-24.14-.2-48.29-.09-72.44-.1ZM90.25,76.55c-36.82,11.27-58.46,44.16-58.65,75.65h23.83c-3.09-32.28,6.48-58.29,34.82-75.65Z"/>
  <path class="cls-1" d="M191.77,160.82c-2.44.66-4.92,1.99-7.32,1.84-4.99-.29-8.64,1.45-12.61,4.43-3.48,2.61-8.34,4.71-12.61,4.74-39.45.35-78.9.19-118.34.24-5.45,0-10.2-1.58-14-5.46-2.88-2.95-6.11-4.08-10.25-3.91-2.82.12-5.68-.92-8.41-2.02,2.95-2.68,176.14-3.42,182.92-1.61.21.58.41,1.16.62,1.75Z"/>
  <path class="cls-1" d="M133.23,27.92c.39.68,1.52,1.76,1.61,2.93.3,3.73.79,7.59.17,11.21-1.11,6.41-2.99,12.69-4.57,19.14-.05-.04-1.06-.37-1.4-1.05-3.08-5.99-4.15-12.1-1.23-18.58,1.96-4.34,3.54-8.86,5.43-13.65Z"/>
  <path class="cls-1" d="M148.65,40.79c3.01,4.34,2.42,8.79,1.1,13.5-1.26,4.52-2.09,9.16-3.08,13.62-3.77-2.54-5.13-9.15-2.81-15.07,1.52-3.88,3.08-7.75,4.79-12.05Z"/>
</svg>