<?xml version="1.0" encoding="UTF-8"?>
<svg id="Camada_1" data-name="Camada 1" xmlns="http://www.w3.org/2000/svg" viewBox="0 0 200 200">
  <defs>
    <style>
      .cls-1 {
        fill: #4a2815;
        stroke-width: 0px;
      }
    </style>
  </defs>
  <path class="cls-1" d="M27.96,174.37c-3.73.03-5.09-2.18-5.71-5.38-.68-3.51,2.05-3.17,3.78-3.69,50.91-15.27,101.83-30.49,152.76-45.69,1.86-.56,4.02-1.82,4.92,1.51.78,2.89.88,5.62-2.04,7.14-1.93,1.01-4.1,1.55-6.2,2.18-48.12,14.37-96.24,28.72-144.37,43.07-1.12.33-2.26.61-3.14.85Z"/>
  <path class="cls-1" d="M22.75,163.37c-1.02-1.17-3.46-2.72-3.42-4.2.05-1.86,1.77-4.67,3.39-5.29,6.01-2.3,12.27-3.9,18.45-5.72,43.23-12.76,86.46-25.51,129.69-38.26,1.26-.37,2.51-.82,3.79-1.1,2.75-.6,5.05.07,5.89,3.16.86,3.15-.74,4.93-3.51,5.77-6.86,2.07-13.73,4.13-20.61,6.17-43.21,12.8-86.43,25.6-129.64,38.4-.98.29-1.97.53-4.05,1.08Z"/>
  <path class="cls-1" d="M177.92,101.16c-.1,3.67-2.58,4.76-5.4,5.6-18.11,5.37-36.21,10.75-54.3,16.15-31.13,9.31-62.26,18.63-93.39,27.96-3.04.91-6.11,1.85-8.04-1.93-1.41-2.76-1.73-4.94,2.18-6.04,10.71-3,21.32-6.36,31.98-9.55,40.24-12.07,80.48-24.13,120.72-36.2,4.73-1.42,6.31-.42,6.25,4.01Z"/>
  <path class="cls-1" d="M17.25,139.56c1.52-.75,3.01-1.55,4.56-2.23,36.16-15.98,72.43-31.73,108.43-48.1,7.49-3.41,14.16-3.22,22.28.09-3.5,1.64-6.33,2.98-9.18,4.3-17.07,7.94-33.85,16.67-51.29,23.59-16.32,6.48-33.31,11.1-50.04,16.42-8.04,2.56-16.16,4.84-24.25,7.24-.17-.44-.34-.87-.51-1.31Z"/>
  <path class="cls-1" d="M129.42,84.94c-34.14,15.09-68.29,30.18-102.43,45.27-.21-.34-.42-.67-.64-1.01,5.56-5.3,8.98-12.69,16.65-15.99,23.62-10.18,47.09-20.73,70.63-31.11,5.54-2.44,10.4.95,15.57,1.67.07.39.15.78.22,1.17Z"/>
  <path class="cls-1" d="M107.32,80.32c-20.01,8.84-40.01,17.68-60.02,26.52-.22-.36-.44-.72-.66-1.08,6-5.87,9.75-14.04,18.39-17.21,7.68-2.82,15.36-5.94,22.51-9.96,7.05-3.95,13.15-.66,19.63.37.05.45.09.9.14,1.36Z"/>
  <path class="cls-1" d="M173.27,94.43c-17.81,5.33-35.62,10.66-53.43,15.99-.12-.32-.23-.64-.35-.97,5.92-2.79,11.83-5.58,17.75-8.35,4.79-2.24,9.88-3.95,14.3-6.81,7.26-4.7,14.33-3.58,21.73.15Z"/>
  <path class="cls-1" d="M66.39,83.98c8.74-12.49,9.78-12.7,20.14-8.9-7.03,3.11-13.05,5.77-20.14,8.9Z"/>
</svg>