<?xml version="1.0" encoding="UTF-8"?>
<svg id="Camada_1" data-name="Camada 1" xmlns="http://www.w3.org/2000/svg" viewBox="0 0 200 200">
  <defs>
    <style>
      .cls-1 {
        fill: #4a2815;
        stroke-width: 0px;
      }
    </style>
  </defs>
  <path class="cls-1" d="M102.3,95.94c22.32,0,44.65.13,66.97-.1,4.86-.05,6.21,1.54,6.24,6.24.12,16.15-2.94,31.27-13.98,43.65-9.06,10.16-19.77,16.72-34.38,16.1-16.63-.7-33.34-.7-49.96.11-13.27.64-23.23-4.97-31.81-13.85-13.19-13.66-16.49-30.69-15.56-48.97.17-3.28,2.28-3.05,4.52-3.04,22.65.02,45.31.01,67.96.01,0-.05,0-.1,0-.15Z"/>
  <path class="cls-1" d="M174.26,93.94H30.91c-.27-10.72,1.42-12.53,11.32-12.53,40.15,0,80.29,0,120.44,0,9.95,0,11.77,1.87,11.59,12.53Z"/>
  <path class="cls-1" d="M102.21,173.72c-9.81,0-19.62,0-29.42,0-3.65,0-6.98-.74-6.87-5.24.1-4.16,3.35-4.93,6.75-4.93,19.78-.03,39.56-.01,59.35-.02,3.7,0,7,.98,6.92,5.3-.08,4.04-3.32,4.89-6.79,4.89-9.97,0-19.95,0-29.92,0Z"/>
  <path class="cls-1" d="M131.59,36.35c.56,1.04,1.7,2.29,1.86,3.65.41,3.4.98,6.97.38,10.27-1.3,7.19-3.28,14.26-4.94,21.19-3.05-1.62-5.81-9.75-4.5-15.6.4-1.76,1.16-3.45,1.8-5.16,1.73-4.64,3.49-9.27,5.4-14.36Z"/>
  <path class="cls-1" d="M78.25,35.05c1.01,4.09,2.26,7.2,2.4,10.35.12,2.89-.91,5.85-1.53,8.75-1.26,5.87-2.58,11.72-3.98,18.08-3.85-4.69-5.27-10.16-4.4-16.15.37-2.56,1.81-4.95,2.71-7.44,1.4-3.88,2.76-7.78,4.81-13.6Z"/>
  <path class="cls-1" d="M104.84,19.37c.39.59,1.48,1.51,1.6,2.54.43,3.74,1.25,7.64.63,11.25-1.23,7.21-3.32,14.28-5,21.18-2.9-1.71-5.72-9.78-4.54-15.2.42-1.93,1.18-3.8,1.88-5.66,1.74-4.61,3.53-9.2,5.43-14.12Z"/>
</svg>